<?xml version="1.0" standalone="no"?>
<!DOCTYPE svg PUBLIC "-//W3C//DTD SVG 20010904//EN"
 "http://www.w3.org/TR/2001/REC-SVG-20010904/DTD/svg10.dtd">
<svg version="1.0" xmlns="http://www.w3.org/2000/svg"
 width="500.000000pt" height="500.000000pt" viewBox="0 0 500.000000 500.000000"
 preserveAspectRatio="xMidYMid meet">

<g transform="translate(0.000000,500.000000) scale(0.100000,-0.100000)"
fill="#000000" stroke="none">
<path d="M2334 2745 c-12 -8 -31 -38 -44 -67 -19 -44 -23 -73 -25 -168 -1
-112 -26 -240 -46 -240 -18 0 -21 58 -14 241 7 184 6 189 -13 189 -20 0 -24
-11 -48 -127 -3 -16 -12 -23 -28 -23 -43 0 -84 -45 -106 -118 -24 -81 -55
-125 -70 -102 -5 8 -10 61 -10 116 0 78 -4 104 -15 114 -26 22 -62 3 -92 -48
l-28 -47 -3 58 c-2 47 -6 57 -21 57 -21 0 -31 -35 -31 -104 0 -42 -46 -141
-65 -141 -16 0 -27 78 -20 158 4 53 3 77 -5 77 -28 0 -48 -151 -26 -203 25
-62 72 -58 101 7 l13 31 1 -42 c2 -84 41 -59 65 42 19 77 61 158 79 152 8 -2
14 -43 17 -116 4 -84 9 -114 20 -121 30 -19 48 -10 77 38 18 28 22 31 33 17
25 -31 58 -18 83 32 l24 46 11 -70 c12 -84 30 -126 56 -131 26 -5 36 9 55 78
l17 61 25 -38 c40 -63 99 -55 130 19 l12 30 15 -36 c23 -58 67 -60 95 -3 l16
32 0 -37 c2 -79 42 -50 65 47 19 77 61 158 79 152 8 -2 14 -43 17 -116 4 -84
9 -114 20 -121 30 -19 48 -10 78 39 l21 35 7 -42 c8 -53 34 -58 34 -7 0 38 18
47 40 20 7 -9 29 -15 52 -15 47 0 89 38 108 96 20 58 4 50 -32 -18 -39 -75
-64 -85 -109 -42 -16 15 -29 33 -29 38 0 6 18 18 40 28 41 17 80 67 80 104 0
51 -60 55 -106 9 -14 -14 -28 -25 -31 -25 -3 0 -3 34 -1 75 5 80 1 92 -25 72
-12 -9 -17 -39 -22 -122 -7 -118 -23 -185 -55 -225 -30 -38 -40 -12 -40 106 0
78 -4 104 -15 114 -26 22 -62 3 -92 -48 l-28 -47 -3 58 c-2 47 -6 57 -21 57
-21 0 -31 -35 -31 -104 0 -34 -34 -120 -57 -146 -13 -15 -23 38 -23 133 0 60
-4 107 -9 107 -15 0 -19 -11 -30 -77 -11 -68 -53 -161 -78 -170 -21 -8 -40 19
-48 69 -6 35 -1 52 40 134 54 107 66 170 41 209 -19 28 -42 32 -72 10z m51
-76 c-1 -49 -7 -79 -29 -126 -16 -35 -33 -63 -37 -63 -12 0 -11 51 2 129 22
137 64 177 64 60z m625 -104 c0 -14 -7 -37 -16 -51 -17 -25 -72 -60 -81 -51
-8 9 26 76 51 102 32 32 46 32 46 0z m-890 -75 c-47 -118 -50 -125 -60 -110
-28 44 20 160 66 160 11 0 10 -9 -6 -50z"/>
<path d="M3300 2647 l-35 -92 -57 -5 c-32 -3 -63 -11 -70 -19 -11 -12 -10 -13
7 -6 11 4 39 10 63 12 52 7 52 6 12 -112 -30 -90 -38 -127 -21 -109 5 5 21 50
36 99 35 118 39 123 69 118 20 -4 27 -13 32 -42 21 -121 60 -201 98 -201 27 0
44 17 66 68 l16 36 13 -31 c27 -65 69 -54 105 28 36 83 32 86 -11 9 -45 -80
-42 -77 -53 -60 -6 8 -10 63 -10 123 0 60 -4 107 -9 107 -15 0 -19 -11 -30
-77 -10 -61 -63 -183 -80 -183 -12 0 -15 12 -36 114 -9 44 -14 85 -11 92 3 7
20 14 38 17 l33 4 -37 1 c-43 2 -43 3 -53 125 -6 63 -10 77 -23 77 -12 0 -27
-28 -52 -93z m30 -56 c0 -44 -4 -51 -30 -44 -17 5 -18 7 -2 48 19 51 32 49 32
-4z"/>
<path d="M1195 2683 c-10 -40 -22 -250 -17 -300 3 -28 9 -43 18 -43 15 0 19
16 29 95 13 109 69 234 94 210 17 -17 31 -110 31 -201 0 -77 2 -84 20 -84 18
0 20 7 20 59 0 72 32 181 61 207 20 18 21 18 35 -1 10 -14 14 -53 15 -144 1
-135 7 -172 28 -179 9 -3 11 0 6 9 -5 7 -8 76 -6 152 2 156 -1 175 -32 186
-32 12 -61 -6 -87 -52 -21 -36 -24 -38 -31 -21 -4 10 -12 33 -19 51 -6 17 -19
34 -27 38 -22 8 -59 -19 -78 -55 -9 -17 -18 -30 -21 -30 -3 0 -4 28 -2 62 2
51 0 63 -13 66 -11 2 -19 -6 -24 -25z"/>
<path d="M1640 2614 c0 -17 22 -14 28 4 2 7 -3 12 -12 12 -9 0 -16 -7 -16 -16z"/>
<path d="M2472 2618 c6 -18 28 -21 28 -4 0 9 -7 16 -16 16 -9 0 -14 -5 -12
-12z"/>
<path d="M3542 2618 c6 -18 28 -21 28 -4 0 9 -7 16 -16 16 -9 0 -14 -5 -12
-12z"/>
<path d="M3105 2350 c-3 -5 1 -10 10 -10 9 0 13 5 10 10 -3 6 -8 10 -10 10 -2
0 -7 -4 -10 -10z"/>
<path d="M1559 2313 c-13 -16 -12 -17 4 -4 9 7 17 15 17 17 0 8 -8 3 -21 -13z"/>
</g>
</svg>
