<?xml version="1.0" standalone="no"?>
<!DOCTYPE svg PUBLIC "-//W3C//DTD SVG 20010904//EN"
 "http://www.w3.org/TR/2001/REC-SVG-20010904/DTD/svg10.dtd">
<svg version="1.0" xmlns="http://www.w3.org/2000/svg"
 width="500.000000pt" height="500.000000pt" viewBox="0 0 500.000000 500.000000"
 preserveAspectRatio="xMidYMid meet">

<g transform="translate(0.000000,500.000000) scale(0.100000,-0.100000)"
fill="#000000" stroke="none">
<path d="M0 2500 l0 -2500 2500 0 2500 0 0 2500 0 2500 -2500 0 -2500 0 0
-2500z m3294 1530 c25 -27 46 -52 46 -55 0 -36 -87 -125 -123 -125 -31 0 -117
88 -117 119 0 16 15 41 42 68 59 61 90 59 152 -7z m-910 -445 c17 -8 119 -102
225 -209 l194 -194 -29 -35 c-38 -45 -102 -87 -131 -87 -39 0 -74 24 -146 99
-84 86 -111 106 -159 115 -52 10 -109 -8 -158 -49 -23 -19 -45 -35 -49 -35 -3
0 -40 34 -81 75 -61 61 -76 72 -89 63 -9 -7 38 43 104 111 66 67 136 131 155
141 43 23 120 26 164 5z m533 -47 c61 -59 68 -63 113 -63 45 0 52 4 113 63 36
34 74 62 84 62 11 0 55 -37 102 -85 69 -70 82 -88 76 -107 -4 -13 -39 -56 -80
-95 -89 -89 -108 -93 -169 -30 -22 23 -52 50 -66 59 -51 36 -154 11 -167 -40
-5 -20 19 -48 161 -191 164 -165 166 -168 166 -211 0 -43 -3 -47 -118 -162
l-118 -118 -49 0 c-47 0 -50 2 -131 84 -46 46 -99 91 -118 100 -42 20 -115 21
-160 2 l-33 -14 -159 159 c-87 87 -162 155 -168 151 -6 -3 0 8 14 25 34 43 84
66 125 59 24 -5 51 -27 108 -90 78 -86 140 -126 195 -126 49 0 128 48 181 109
83 96 79 114 -52 219 -139 110 -140 117 -28 225 43 42 86 77 96 77 9 0 46 -28
82 -62z m-218 -808 c22 -11 53 -36 70 -57 l31 -37 -31 -32 -30 -31 -71 74
c-39 40 -78 73 -87 73 -25 1 30 29 57 30 12 0 40 -9 61 -20z m-1955 -983 c82
-208 84 -215 85 -195 1 9 30 90 65 180 l65 163 61 3 c47 2 61 0 58 -10 -3 -7
-14 -14 -26 -16 -27 -4 -27 -3 -7 -222 8 -91 15 -168 15 -171 0 -4 11 -10 25
-13 52 -13 23 -26 -60 -26 -83 0 -111 11 -60 24 17 4 25 13 25 29 -1 34 -28
298 -32 302 -2 2 -32 -73 -68 -166 -36 -92 -70 -170 -77 -173 -11 -5 -25 24
-119 252 l-42 103 -6 -73 c-3 -40 -8 -116 -12 -169 l-6 -96 26 -7 c49 -12 26
-26 -44 -26 -40 0 -70 4 -70 10 0 6 6 10 13 10 34 1 39 18 52 206 7 104 11
192 8 197 -2 4 -13 7 -24 7 -10 0 -19 7 -19 15 0 12 13 15 58 15 l57 0 59
-153z m649 138 c-1 -5 -12 -12 -25 -15 -23 -6 -23 -6 -26 -202 l-2 -196 25 -6
c52 -13 23 -26 -60 -26 -83 0 -111 11 -60 24 l25 6 0 200 c0 191 -1 200 -19
200 -22 0 -34 13 -24 24 11 11 168 2 166 -9z m338 -132 c63 -80 122 -160 131
-177 17 -30 17 -27 18 127 l0 157 -25 10 c-46 18 -27 30 46 30 52 0 70 -3 67
-12 -3 -7 -14 -14 -26 -16 -22 -3 -22 -5 -22 -222 0 -120 -4 -221 -9 -224 -4
-3 -68 72 -142 166 -74 94 -141 179 -149 190 -13 17 -15 2 -12 -146 l3 -166
24 -6 c48 -12 24 -24 -45 -24 -70 0 -93 12 -45 24 l25 6 0 199 c0 197 0 200
-22 203 -12 2 -23 9 -26 16 -2 8 11 12 46 12 l49 0 114 -147z m654 123 c85
-37 125 -102 125 -206 0 -80 -23 -135 -74 -177 -52 -43 -97 -53 -230 -53 -109
0 -147 10 -91 24 l25 6 0 195 0 195 -25 10 c-14 5 -25 15 -25 21 0 19 246 6
295 -15z m433 12 c-3 -7 -15 -15 -29 -18 l-24 -6 -3 -192 -2 -193 82 3 82 3 7
33 c13 66 28 57 36 -22 l6 -56 -162 0 c-98 0 -161 4 -161 10 0 5 11 12 25 16
l25 6 -2 197 c-3 195 -3 196 -25 199 -13 2 -23 10 -23 18 0 11 18 14 86 14 63
0 85 -3 82 -12z m430 0 c-3 -7 -15 -15 -29 -18 l-24 -6 -3 -192 -2 -192 25
-12 c44 -20 27 -28 -60 -28 -85 0 -112 12 -55 24 l30 6 -2 197 c-3 197 -3 198
-25 201 -13 2 -23 10 -23 18 0 11 18 14 86 14 63 0 85 -3 82 -12z m262 -37
c33 -47 225 -301 225 -298 0 1 -1 73 -3 159 -3 148 -4 157 -23 160 -11 2 -21
8 -22 13 -1 6 28 11 66 13 53 2 68 0 65 -10 -3 -7 -14 -14 -26 -16 -22 -3 -22
-5 -22 -222 0 -120 -3 -221 -8 -224 -7 -4 -88 94 -234 286 l-68 89 0 -164 0
-165 25 -6 c48 -12 25 -26 -45 -26 -70 0 -93 12 -45 24 l25 6 0 200 c0 191 -1
200 -19 200 -21 0 -34 13 -24 24 3 3 27 6 53 6 44 0 47 -2 80 -49z m598 37
c-3 -7 -14 -14 -26 -16 -21 -3 -22 -9 -22 -98 0 -73 3 -94 14 -94 12 0 156
167 156 181 0 4 -9 9 -20 12 -11 3 -20 10 -20 16 0 7 28 11 76 11 55 0 75 -3
72 -12 -3 -7 -13 -15 -24 -18 -10 -3 -26 -9 -34 -15 -16 -10 -121 -130 -134
-153 -5 -8 22 -53 75 -123 64 -86 88 -111 111 -116 57 -11 11 -24 -78 -21 -84
3 -87 4 -57 16 l31 13 -61 85 c-46 63 -67 84 -84 84 -22 0 -23 -3 -23 -84 0
-81 1 -84 25 -90 52 -13 23 -26 -60 -26 -83 0 -111 11 -60 24 l25 6 0 199 c0
197 0 200 -22 203 -12 2 -23 9 -26 16 -3 9 18 12 83 12 65 0 86 -3 83 -12z"/>
<path d="M2210 1671 l0 -201 50 0 c121 0 171 53 178 184 6 138 -42 199 -166
212 l-62 7 0 -202z"/>
</g>
</svg>
