<?xml version="1.0" standalone="no"?>
<!DOCTYPE svg PUBLIC "-//W3C//DTD SVG 20010904//EN"
 "http://www.w3.org/TR/2001/REC-SVG-20010904/DTD/svg10.dtd">
<svg version="1.0" xmlns="http://www.w3.org/2000/svg"
 width="500.000000pt" height="500.000000pt" viewBox="0 0 500.000000 500.000000"
 preserveAspectRatio="xMidYMid meet">

<g transform="translate(0.000000,500.000000) scale(0.100000,-0.100000)"
fill="#000000" stroke="none">
<path d="M2400 3150 c-45 -49 -65 -119 -65 -237 0 -98 -1 -102 -23 -108 -33
-8 -42 1 -42 44 0 73 -55 92 -116 39 l-36 -32 7 122 8 122 -26 0 c-23 0 -27
-6 -41 -69 -9 -37 -19 -100 -22 -139 -6 -66 -11 -77 -57 -137 -71 -92 -95 -86
-112 26 -6 43 -5 45 28 62 55 30 75 97 39 130 -10 10 -28 17 -38 17 -31 0 -76
-54 -89 -107 -13 -52 -30 -62 -78 -44 -24 9 -27 16 -27 56 0 87 -41 140 -78
103 -25 -25 -7 -105 32 -137 21 -18 20 -83 -2 -141 -10 -25 -24 -45 -31 -45
-17 0 -38 57 -52 144 -18 110 -18 111 -38 111 -15 0 -24 -23 -52 -131 -19 -72
-38 -130 -44 -130 -17 0 -26 90 -20 188 6 97 -2 120 -33 89 -23 -22 -30 -213
-10 -270 29 -87 72 -73 105 34 12 40 24 75 27 77 3 3 10 -15 17 -41 15 -59 49
-96 88 -96 40 0 65 35 80 110 l12 61 46 -3 46 -3 12 -50 c8 -30 23 -58 40 -72
48 -42 94 -26 145 49 l35 51 2 -39 c2 -21 6 -63 9 -91 5 -50 7 -53 34 -53 24
0 29 5 32 27 2 21 11 29 43 39 24 9 58 33 85 63 25 27 57 51 71 55 23 5 28 2
34 -22 35 -146 126 -169 188 -48 l15 30 7 -32 c4 -18 18 -40 31 -49 33 -21 71
-4 86 39 10 28 12 30 19 12 4 -10 8 -32 8 -47 1 -23 5 -28 23 -25 19 3 26 16
46 93 25 97 70 188 94 193 21 4 31 -54 23 -132 -8 -69 8 -144 31 -153 29 -11
60 7 84 49 l24 43 9 -47 c7 -37 14 -48 28 -48 14 0 19 9 21 45 l3 46 34 -26
c46 -33 90 -33 131 1 30 26 60 74 75 123 14 46 -15 16 -48 -49 -20 -40 -43
-70 -60 -80 -27 -15 -29 -14 -67 27 -43 45 -50 63 -24 63 25 0 81 38 105 71
25 35 30 96 9 110 -31 19 -70 9 -110 -27 l-40 -36 0 96 c0 88 -2 96 -19 96
-27 0 -31 -18 -40 -182 -7 -125 -11 -149 -34 -194 -55 -109 -84 -83 -73 68 10
133 -19 183 -85 148 -10 -6 -32 -34 -49 -63 l-30 -52 0 68 c0 64 -1 67 -24 67
-27 0 -30 -9 -41 -115 -6 -65 -51 -175 -71 -175 -21 0 -28 41 -27 158 1 92 -1
112 -13 112 -18 0 -22 -9 -33 -92 -12 -83 -65 -191 -97 -196 -18 -3 -25 5 -38
44 -22 66 -20 103 10 147 67 100 108 247 82 297 -21 39 -71 39 -108 0z m78
-23 c5 -19 6 -56 2 -83 -9 -57 -68 -194 -83 -194 -14 0 -1 173 18 234 25 82
48 97 63 43z m740 -175 c5 -33 -33 -87 -74 -107 -20 -9 -38 -15 -40 -12 -9 9
24 73 56 111 35 40 53 42 58 8z m-1538 -27 c0 -17 -2 -17 -10 -5 -5 8 -10 24
-10 35 0 17 2 17 10 5 5 -8 10 -24 10 -35z m246 20 c9 -22 -15 -84 -38 -96
-20 -11 -20 -9 -14 26 15 76 38 108 52 70z m303 -67 c5 -13 6 -37 4 -55 -4
-27 -12 -34 -56 -51 -29 -11 -54 -15 -55 -10 -7 17 8 54 38 96 34 47 56 53 69
20z m-19 -126 c0 -14 -54 -60 -75 -64 -35 -5 -24 32 15 53 37 20 60 24 60 11z"/>
<path d="M2575 3020 c-8 -12 20 -24 35 -15 6 3 8 11 5 16 -8 12 -32 12 -40 -1z"/>
</g>
</svg>
