<?xml version="1.0" standalone="no"?>
<!DOCTYPE svg PUBLIC "-//W3C//DTD SVG 20010904//EN"
 "http://www.w3.org/TR/2001/REC-SVG-20010904/DTD/svg10.dtd">
<svg version="1.0" xmlns="http://www.w3.org/2000/svg"
 width="500.000000pt" height="500.000000pt" viewBox="0 0 500.000000 500.000000"
 preserveAspectRatio="xMidYMid meet">

<g transform="translate(0.000000,500.000000) scale(0.100000,-0.100000)"
fill="#000000" stroke="none">
<path d="M3490 2998 c-24 -62 -47 -117 -51 -123 -5 -5 -36 -10 -68 -11 -55 -1
-121 -26 -121 -46 0 -13 33 -9 60 7 30 17 110 20 110 4 0 -6 -11 -41 -24 -78
-13 -36 -33 -99 -44 -139 -18 -65 -19 -73 -5 -70 11 2 30 47 61 146 l45 142
33 0 c30 0 34 -3 39 -37 12 -70 45 -184 65 -222 23 -46 67 -69 99 -51 12 6 34
36 51 68 16 31 29 50 30 41 0 -30 40 -69 69 -69 36 0 52 19 90 109 35 82 35
81 21 81 -5 0 -28 -36 -50 -79 -22 -44 -44 -82 -50 -86 -21 -13 -32 51 -28
173 3 118 2 123 -17 120 -17 -3 -23 -18 -38 -93 -17 -89 -77 -235 -96 -235
-12 0 -28 47 -46 144 -23 121 -22 126 24 126 58 0 60 18 4 22 l-48 3 -6 55
c-4 30 -10 90 -14 133 -6 71 -8 77 -29 77 -20 0 -29 -15 -66 -112z m28 -90
c-3 -47 -5 -53 -23 -50 -11 2 -21 5 -23 6 -5 6 33 96 41 96 4 0 7 -24 5 -52z"/>
<path d="M1825 3080 c-11 -18 -33 -155 -41 -250 -6 -82 -12 -105 -44 -171 -60
-118 -84 -125 -111 -31 -42 142 18 354 67 237 9 -24 19 -33 29 -29 18 7 18 7
1 49 -19 45 -56 55 -105 29 -41 -22 -81 -91 -81 -140 0 -22 -14 -50 -48 -95
-63 -82 -78 -95 -96 -80 -12 10 -42 129 -34 135 2 1 20 13 40 25 74 44 75 152
2 159 -62 6 -94 -42 -128 -192 -24 -103 -88 -207 -113 -183 -15 16 -14 137 2
302 9 93 19 172 21 174 3 3 25 4 49 2 53 -3 105 7 105 20 0 5 -18 9 -41 9 -22
0 -72 7 -111 16 -85 19 -176 15 -231 -12 -36 -17 -47 -37 -27 -49 5 -3 33 1
62 10 28 8 66 15 84 15 l32 0 -14 -52 c-26 -100 -38 -247 -26 -328 14 -94 35
-124 90 -128 50 -4 79 22 109 94 10 24 20 44 23 44 3 0 14 -15 24 -34 28 -53
89 -72 134 -41 12 9 36 37 54 62 l32 47 14 -45 c45 -137 138 -156 200 -41 30
56 31 56 37 27 22 -101 53 -100 77 0 20 83 78 199 101 203 15 3 17 -10 17
-115 0 -125 12 -190 36 -200 32 -12 64 7 86 52 24 49 38 57 38 23 0 -34 37
-88 60 -88 26 0 44 30 70 120 l23 75 11 -47 c24 -91 71 -131 128 -107 36 15
46 34 62 112 l13 62 46 3 c44 3 47 1 52 -25 10 -49 46 -110 71 -122 57 -26 95
-6 161 84 l22 30 0 -66 c1 -37 4 -81 7 -98 6 -29 10 -32 38 -29 25 2 32 8 36
32 4 24 12 31 52 43 34 9 56 24 75 50 48 62 59 70 107 77 25 4 46 12 46 17 0
6 -20 7 -50 3 -49 -6 -50 -6 -50 19 0 32 -17 79 -33 89 -26 17 -67 7 -102 -24
l-36 -31 7 131 7 132 -31 0 c-30 0 -31 -2 -47 -71 -9 -39 -19 -107 -22 -151
-6 -75 -9 -82 -53 -141 -61 -80 -76 -93 -94 -78 -12 10 -42 129 -34 135 2 1
20 13 40 25 75 45 75 152 0 159 -42 4 -86 -38 -102 -99 -7 -24 -14 -50 -16
-56 -4 -14 -51 -17 -78 -7 -11 4 -16 19 -16 43 -1 94 -40 163 -81 141 -41 -22
-32 -101 18 -161 22 -26 25 -37 20 -78 -7 -62 -32 -121 -50 -121 -17 0 -44 88
-60 199 -11 66 -15 76 -34 79 -18 3 -24 -4 -32 -35 -46 -180 -65 -249 -68
-253 -14 -17 -23 45 -23 168 l0 142 -24 0 c-21 0 -26 -7 -35 -50 -6 -28 -11
-67 -11 -87 0 -48 -77 -214 -90 -193 -5 8 -10 67 -11 130 -1 63 -4 128 -8 144
-14 67 -77 60 -123 -14 -17 -28 -33 -49 -34 -47 -2 2 1 54 6 117 5 63 10 136
10 163 0 43 -2 47 -24 47 -14 0 -28 -4 -31 -10z m-410 -210 c9 -28 -13 -88
-36 -100 -24 -13 -25 -2 -4 68 17 55 29 65 40 32z m1055 -13 c0 -5 -4 -5 -10
-2 -5 3 -10 14 -10 23 0 15 2 15 10 2 5 -8 10 -19 10 -23z m265 13 c9 -28 -13
-88 -36 -100 -24 -13 -25 -2 -4 68 17 55 29 65 40 32z m326 -74 c7 -14 9 -40
5 -60 -5 -28 -13 -37 -34 -42 -15 -4 -39 -13 -54 -21 -27 -13 -28 -12 -28 9 0
36 68 138 92 138 5 0 13 -11 19 -24z m-53 -172 c-41 -37 -71 -45 -66 -16 3 17
87 66 97 56 3 -3 -11 -21 -31 -40z"/>
<path d="M3794 2955 c-4 -9 -2 -21 4 -27 15 -15 44 -1 40 19 -4 23 -36 29 -44
8z"/>
<path d="M3230 2596 c0 -10 9 -16 21 -16 24 0 21 23 -4 28 -10 2 -17 -3 -17
-12z"/>
</g>
</svg>
